REM DIRINDEX 1\2,1\3\7,1\3\8,1\4\9,1\4\10,1\4\11,1\5\12,1\5\13,1\5\14,1\6\15,1\6\16,1\6\17
REM DIRNAME "folder01","folder02","folder03","folder04","folder05","folder06","folder07","folder08","folder09","folder10","folder11","folder12","folder13","folder14","folder15","folder16","folder17"
TITLE ""
FILE "2Q_t_0118-0134.mp3" MP3
  TRACK 01 AUDIO
    TITLE "7:cjc174_1970"
    INDEX 01 00:00:00
  TRACK 02 AUDIO
    TITLE "0:"
    INDEX 01 00:01:33
  TRACK 03 AUDIO
    TITLE "8:cjc174_1971"
    INDEX 01 00:02:05
  TRACK 04 AUDIO
    TITLE "0:"
    INDEX 01 00:03:71
  TRACK 05 AUDIO
    TITLE "7:cjc174_1972"
    INDEX 01 00:04:41
  TRACK 06 AUDIO
    TITLE "0:"
    INDEX 01 00:05:43
  TRACK 07 AUDIO
    TITLE "8:cjc174_1973"
    INDEX 01 00:06:15
  TRACK 08 AUDIO
    TITLE "0:"
    INDEX 01 00:09:52
  TRACK 09 AUDIO
    TITLE "7:cjc174_1974"
    INDEX 01 00:10:22
  TRACK 10 AUDIO
    TITLE "0:"
    INDEX 01 00:11:32
  TRACK 11 AUDIO
    TITLE "8:cjc174_1975"
    INDEX 01 00:12:04
  TRACK 12 AUDIO
    TITLE "0:"
    INDEX 01 00:15:04
  TRACK 13 AUDIO
    TITLE "7:cjc174_1976"
    INDEX 01 00:15:49
  TRACK 14 AUDIO
    TITLE "0:"
    INDEX 01 00:16:58
  TRACK 15 AUDIO
    TITLE "8:cjc174_1977"
    INDEX 01 00:17:30
  TRACK 16 AUDIO
    TITLE "0:"
    INDEX 01 00:19:64
  TRACK 17 AUDIO
    TITLE "7:cjc174_1978"
    INDEX 01 00:20:37
  TRACK 18 AUDIO
    TITLE "0:"
    INDEX 01 00:21:63
  TRACK 19 AUDIO
    TITLE "8:cjc174_1979"
    INDEX 01 00:22:33
  TRACK 20 AUDIO
    TITLE "0:"
    INDEX 01 00:24:72
  TRACK 21 AUDIO
    TITLE "7:cjc174_1980"
    INDEX 01 00:25:40
  TRACK 22 AUDIO
    TITLE "0:"
    INDEX 01 00:26:57
  TRACK 23 AUDIO
    TITLE "8:cjc174_1981"
    INDEX 01 00:27:27
  TRACK 24 AUDIO
    TITLE "0:"
    INDEX 01 00:30:09
  TRACK 25 AUDIO
    TITLE "7:cjc174_1982"
    INDEX 01 00:30:54
  TRACK 26 AUDIO
    TITLE "0:"
    INDEX 01 00:31:52
  TRACK 27 AUDIO
    TITLE "8:cjc174_1983"
    INDEX 01 00:32:28
  TRACK 28 AUDIO
    TITLE "0:"
    INDEX 01 00:35:28
  TRACK 29 AUDIO
    TITLE "7:cjc174_1984"
    INDEX 01 00:35:75
  TRACK 30 AUDIO
    TITLE "0:"
    INDEX 01 00:36:71
  TRACK 31 AUDIO
    TITLE "8:cjc174_1985"
    INDEX 01 00:37:41
  TRACK 32 AUDIO
    TITLE "0:"
    INDEX 01 00:40:02
  TRACK 33 AUDIO
    TITLE "7:cjc174_1986"
    INDEX 01 00:40:45
  TRACK 34 AUDIO
    TITLE "0:"
    INDEX 01 00:42:07
  TRACK 35 AUDIO
    TITLE "8:cjc174_1987"
    INDEX 01 00:42:52
  TRACK 36 AUDIO
    TITLE "0:"
    INDEX 01 00:45:62
  TRACK 37 AUDIO
    TITLE "7:cjc174_1988"
    INDEX 01 00:46:30
  TRACK 38 AUDIO
    TITLE "0:"
    INDEX 01 00:47:71
  TRACK 39 AUDIO
    TITLE "8:cjc174_1989"
    INDEX 01 00:48:41
  TRACK 40 AUDIO
    TITLE "0:"
    INDEX 01 00:52:42
  TRACK 41 AUDIO
    TITLE "7:cjc174_1990"
    INDEX 01 00:53:10
  TRACK 42 AUDIO
    TITLE "0:"
    INDEX 01 00:54:18
  TRACK 43 AUDIO
    TITLE "8:cjc174_1991"
    INDEX 01 00:54:63
  TRACK 44 AUDIO
    TITLE "0:"
    INDEX 01 00:57:36
  TRACK 45 AUDIO
    TITLE "7:cjc174_1992"
    INDEX 01 00:58:06
  TRACK 46 AUDIO
    TITLE "0:"
    INDEX 01 00:59:11
  TRACK 47 AUDIO
    TITLE "8:cjc174_1993"
    INDEX 01 00:59:56
  TRACK 48 AUDIO
    TITLE "0:"
    INDEX 01 01:02:45
  TRACK 49 AUDIO
    TITLE "7:cjc174_1994"
    INDEX 01 01:03:15
  TRACK 50 AUDIO
    TITLE "0:"
    INDEX 01 01:04:18
  TRACK 51 AUDIO
    TITLE "8:cjc174_1995"
    INDEX 01 01:04:67
  TRACK 52 AUDIO
    TITLE "0:"
    INDEX 01 01:06:72
  TRACK 53 AUDIO
    TITLE "7:cjc174_1996"
    INDEX 01 01:07:42
  TRACK 54 AUDIO
    TITLE "0:"
    INDEX 01 01:08:39
  TRACK 55 AUDIO
    TITLE "8:cjc174_1997"
    INDEX 01 01:09:10
  TRACK 56 AUDIO
    TITLE "0:"
    INDEX 01 01:11:69
  TRACK 57 AUDIO
    TITLE "7:cjc174_1998"
    INDEX 01 01:12:37
  TRACK 58 AUDIO
    TITLE "0:"
    INDEX 01 01:13:45
  TRACK 59 AUDIO
    TITLE "8:cjc174_1999"
    INDEX 01 01:14:17
  TRACK 60 AUDIO
    TITLE "0:"
    INDEX 01 01:18:36
  TRACK 61 AUDIO
    TITLE "7:cjc174_2000"
    INDEX 01 01:19:08
  TRACK 62 AUDIO
    TITLE "0:"
    INDEX 01 01:20:21
  TRACK 63 AUDIO
    TITLE "8:cjc174_2001"
    INDEX 01 01:20:70
  TRACK 64 AUDIO
    TITLE "0:"
    INDEX 01 01:25:48
  TRACK 65 AUDIO
    TITLE "2:cjc174_2002"
    INDEX 01 01:26:16
  TRACK 66 AUDIO
    TITLE "0:"
    INDEX 01 01:27:23
  TRACK 67 AUDIO
    TITLE "7:cjc174_2003"
    INDEX 01 01:27:66
  TRACK 68 AUDIO
    TITLE "0:"
    INDEX 01 01:29:10
  TRACK 69 AUDIO
    TITLE "8:cjc174_2004"
    INDEX 01 01:29:57
  TRACK 70 AUDIO
    TITLE "0:"
    INDEX 01 01:32:05
